<?xml version="1.0" encoding="iso-8859-1"?>
<!-- Generator: Adobe Illustrator 19.0.0, SVG Export Plug-In . SVG Version: 6.00 Build 0)  -->
<svg xmlns="http://www.w3.org/2000/svg" xmlns:xlink="http://www.w3.org/1999/xlink" version="1.1" id="Layer_1" x="0px" y="0px" viewBox="0 0 512 512" style="enable-background:new 0 0 512 512;" xml:space="preserve">
<path style="fill:#163457;" d="M311.652,89.043H200.348c-9.22,0-16.696-7.475-16.696-16.696V16.696  c0-9.22,7.475-16.696,16.696-16.696h111.304c9.22,0,16.696,7.475,16.696,16.696v55.652  C328.348,81.568,320.873,89.043,311.652,89.043z"/>
<path style="fill:#0F2A47;" d="M311.652,0H256v89.043h55.652c9.22,0,16.696-7.475,16.696-16.696V16.696  C328.348,7.475,320.873,0,311.652,0z"/>
<path style="fill:#1C3D66;" d="M356.174,512H155.826c-9.22,0-16.696-7.475-16.696-16.696V72.348c0-9.22,7.475-16.696,16.696-16.696  h200.348c9.22,0,16.696,7.475,16.696,16.696v422.956C372.87,504.525,365.394,512,356.174,512z"/>
<path style="fill:#163457;" d="M356.174,55.652H256V512h100.174c9.22,0,16.696-7.475,16.696-16.696V72.348  C372.87,63.127,365.394,55.652,356.174,55.652z"/>
<path style="fill:#FFE365;" d="M256,339.478c-30.687,0-55.652-24.966-55.652-55.652s24.966-55.652,55.652-55.652  s55.652,24.966,55.652,55.652S286.687,339.478,256,339.478z"/>
<path style="fill:#FF7976;" d="M256,203.13c-30.687,0-55.652-24.966-55.652-55.652S225.313,91.826,256,91.826  s55.652,24.966,55.652,55.652S286.687,203.13,256,203.13z"/>
<path style="fill:#B7E183;" d="M256,475.826c-30.687,0-55.652-24.966-55.652-55.652s24.966-55.652,55.652-55.652  s55.652,24.966,55.652,55.652S286.687,475.826,256,475.826z"/>
<path style="fill:#FFC733;" d="M256,228.174v111.304c30.687,0,55.652-24.966,55.652-55.652S286.687,228.174,256,228.174z"/>
<path style="fill:#FF5752;" d="M256,91.826V203.13c30.687,0,55.652-24.966,55.652-55.652S286.687,91.826,256,91.826z"/>
<path style="fill:#71DE56;" d="M256,364.522v111.304c30.687,0,55.652-24.966,55.652-55.652S286.687,364.522,256,364.522z"/>
<g>
</g>
<g>
</g>
<g>
</g>
<g>
</g>
<g>
</g>
<g>
</g>
<g>
</g>
<g>
</g>
<g>
</g>
<g>
</g>
<g>
</g>
<g>
</g>
<g>
</g>
<g>
</g>
<g>
</g>
</svg>
